<svg viewBox="0 0 1112 534" fill="none" preserveAspectRatio="none" xmlns="http://www.w3.org/2000/svg"><g opacity="0.75"><path d="M1106.98 103.426L1096.44 5.12008L1021.63 11.2642C1015.28 7.50945 999.143 0 985.488 0C968.419 0 882.572 8.19212 875.041 8.19212C869.017 8.19212 799.569 13.3122 765.598 15.8722L667.702 0L525.627 15.8722L453.837 0L318.288 5.12008L6.52641 3.58405L2.00813 22.5283V95.7454V209.923L14.0569 292.868L0 461.319L16.065 518.664L76.8108 524.808L241.979 517.128L391.585 515.592L521.109 533L581.855 513.544L697.322 518.664H924.742L1049.25 502.792L1085.39 520.2L1112 515.592L1096.44 421.382L1108.49 350.213L1103.97 287.748L1086.9 183.299L1106.98 103.426Z" fill="black" fill-opacity="0.3"/><path d="M5.02026 429.574L15.563 527.88L90.3657 521.736C96.7247 525.491 112.857 533 126.512 533C143.581 533 229.428 524.808 236.959 524.808C242.983 524.808 312.431 519.688 346.402 517.128L444.298 533L586.373 517.128L658.163 533L793.712 527.88L1105.47 529.416L1109.99 510.472V437.255V323.077L1097.94 240.132L1112 71.6811L1095.93 14.3362L1035.19 8.19208L870.021 15.8722L720.415 17.4082L590.891 0L530.145 19.4562L414.678 14.3362H187.258L62.7539 30.2084L26.6077 12.8002L0 17.4082L15.563 111.618L3.51416 182.787L8.03247 245.252L25.1016 349.701L5.02026 429.574Z" fill="black" fill-opacity="0.19"/></g><mask id="mask0_709_30319" style="mask-type:alpha" maskUnits="userSpaceOnUse" x="7" y="10" width="1084" height="502"><path d="M938.556 509.799L1084.5 502.905L1080.86 464.339L1088.12 367.818L1077.83 325.464L1086.91 155.718L1079.66 97.0894L1089.33 81.9394L1090.54 18.66L1004.77 19.6047L921.652 15.1905L872.957 25.7337L815.999 10.2476L656.011 21.185L465.232 16.0814L439.272 25.9652L416.934 10.0186L198.384 16.0479L101.787 11.3686L11.2261 21.2524L17.2633 68.0519L9.52917 104.132L17.8671 180.968L23.3387 215.563L11.8411 226.553L12.4462 311.976L7 377.917L13.0513 385.91L15.4718 413.385L21.4895 452.405L17.2633 499.117C43.6262 501.222 100.097 505.43 115.069 505.43C130.042 505.43 214.684 507.489 214.684 507.489L279.283 501.708L339.053 507.489C339.053 507.489 429.733 499.82 459.195 497.8C488.657 495.78 506.487 508.592 513.531 509.434C515.342 502.279 525.605 505.856 527.416 504.593C529.135 503.395 536.271 499.754 540.698 511.958C570.684 509.854 638.382 509.38 652.388 509.38C669.896 509.38 782.19 500.171 802.717 500.171C807.547 500.171 858.26 504.283 863.09 497.97L938.556 509.799Z" fill="black"/></mask><g mask="url(#mask0_709_30319)"><rect x="-14" y="-13" width="1143" height="557" fill="url(#paint0_linear_709_30319)"/><rect x="-14" y="-13" width="1143" height="557" fill="black" fill-opacity="0.17"/><g style="mix-blend-mode:overlay" filter="url(#filter0_f_709_30319)"><path d="M1137 -48L393 -54C353.167 -47.1667 268.8 -33.5 250 -33.5C231.2 -33.5 130.833 -22.5 83 -17L98.5 5.5L306.5 17C341.5 17.6667 413.2 18.8 420 18C428.5 17 490 28.5 496 30.5C500.8 32.1 595.667 40.1667 642.5 44C694.333 59 799.2 89 804 89C808.8 89 856.333 107.667 879.5 117L868 154L947.5 202.5L959.5 217C979.5 236.167 1020.1 275.3 1022.5 278.5C1025.5 282.5 1052.5 330 1047.5 334C1042.5 338 1084 452.5 1085 457.5C1085.8 461.5 1096.67 506.333 1124.5 510.5L1137 -48Z" fill="white" fill-opacity="0.4"/></g><g style="mix-blend-mode:overlay" filter="url(#filter1_f_709_30319)"><path d="M76.9999 325C71.3999 320.6 24.3333 111.167 1.49992 7C-10.5 20.3333 -34.9 48 -36.5 52C-38.5 57 -62.0001 281 -67.5001 293C-71.9001 302.6 -70.0001 464 -68.5001 543.5C206 545.167 769.4 549.4 827 553C884.6 556.6 905.333 524.167 908.5 507.5L581.5 489C471 471.833 245.1 436.5 225.5 432.5C201 427.5 83.9999 330.5 76.9999 325Z" fill="#261431"/></g><g filter="url(#filter2_f_709_30319)"><path d="M1014.18 246.032L1213.28 240L1371 554.443C1171.15 557.962 768.322 565 755.794 565C743.266 565 726.711 516.74 720 492.61L784.876 368.19L839.686 307.865L1014.18 246.032Z" fill="url(#paint1_linear_709_30319)" fill-opacity="0.49"/></g><path d="M148.771 274.444L-19.0016 271.785L-33.5298 290.382L147.275 302.867L313.652 266.275L396.201 288.306L577.905 265.738L715.82 296.676L833.89 239.592L862.021 215.818C819.334 227.044 732.044 250.93 724.375 256.669C716.706 262.408 657.471 253.779 628.813 248.747L448.994 247.235L360.537 249.59L148.771 274.444Z" fill="black" fill-opacity="0.05"/><path d="M510.208 503.773C504.786 523.288 494.459 564.765 496.532 574.55L345.09 582.847L396.246 544.893L434.881 526.534L449.992 519.17L450.365 475.873C443.897 462.402 429.464 434.93 423.476 432.807C417.487 430.685 449.069 402.935 465.608 389.325L410.495 319.177L470.3 330.048L508.926 392.244L491.837 441.647L510.208 503.773Z" fill="black" fill-opacity="0.05"/><path d="M483.144 531.588C484.163 544.788 486.479 572.042 487.586 575.457L424.74 589.217C428.383 574.665 435.895 544.346 436.793 539.489C437.692 534.631 452.463 529.394 459.737 527.382L459.337 480.213L414.501 428.825L421.386 392.153C430.702 410.401 449.877 446.994 452.048 447.382C454.219 447.769 452.126 425.963 450.808 415.011C458.362 408.067 473.858 393.687 475.418 391.727C476.977 389.766 462.983 360.438 455.791 346.019C451.266 319.809 442.011 266.206 441.186 261.479C440.154 255.571 471.984 329.361 474.071 335.88C476.159 342.398 490.953 367.751 491.61 375.069C492.268 382.386 481.341 422.359 481.316 427.657C481.296 431.895 494.362 463.273 500.897 478.433L483.144 531.588Z" fill="black" fill-opacity="0.05"/><path d="M476.743 404.129L465.087 347.937C465.47 362.484 466.282 392.082 466.463 394.093C466.689 396.608 454.483 417.33 454.265 419.648C454.047 421.966 456 450.817 455.761 452.907C455.571 454.578 463.421 471.734 467.37 480.103L455.638 544.058C462.156 524.076 475.5 483.765 476.74 482.382C477.98 480.999 469.15 448.513 464.58 432.442L476.743 404.129Z" fill="black" fill-opacity="0.05"/><path d="M397.771 15.3237L340.768 -45.0143L410.411 -48.0101L424.302 11.6946L413.71 45.6427L425.311 98.847L434.481 181.926L439.745 268.985L396.526 98.7349L397.771 15.3237Z" fill="black" fill-opacity="0.05"/><path d="M429.711 45.8065L402.196 -46.9249L354.178 -57.0818L403.767 13.2565L396.686 48.3186L409.254 88.5606L409.612 135.255C420.051 180.262 441.812 271.59 445.354 276.844C448.895 282.099 434.61 180.996 427.025 129.788L429.711 45.8065Z" fill="black" fill-opacity="0.05"/><path fill-rule="evenodd" clip-rule="evenodd" d="M18.865 324.335L15.7224 169.384L140.367 144.93L219.553 -31.7466L326.38 -7.48657C345.929 10.8417 386.988 41.1225 394.836 15.6196C402.683 -9.8833 513.257 -63.9696 567.563 -87.8249C603.233 -92.5209 677.812 -100.867 690.766 -96.6839C706.96 -91.4547 878.622 -103.317 885.339 -105.484C892.055 -107.651 976.03 -125.689 1002.24 -91.4149C1023.21 -63.9957 1086.18 204.773 1115.05 335.729C1034.5 391.801 868.686 504.376 849.827 506.106C839.982 507.009 756.087 526.442 661.642 548.319C529.927 578.829 377.692 614.092 377.179 610.475C376.828 607.995 338.806 598.674 293.207 587.495C224.63 570.683 138.913 549.67 138.416 541.404C137.754 530.394 57.1423 439.764 16.9189 395.826L18.865 324.335ZM291.23 45.7966L273.017 176.943L203.988 242.934L167.08 283.815C173.952 310.493 188.182 365.288 190.122 371.045C192.062 376.803 275.445 372.429 316.893 369.522C351.983 399.71 425.192 459.653 437.308 457.922C445.579 456.739 488.531 418.296 527.523 383.396C559.935 354.387 589.611 327.826 594.36 327.148C600.362 326.29 657.761 318.979 706.715 312.744C743.111 308.108 774.839 304.067 777.305 303.715C778.504 303.543 781.713 303.837 786.032 304.232C802.545 305.743 835.282 308.738 833.929 292.906C832.867 280.486 763.781 234.97 711.418 200.471C679.571 179.49 653.91 162.583 653.498 159.675C652.463 152.374 745.188 88.1405 784.113 61.1764C786.181 59.7437 788.097 58.4161 789.84 57.208C794.693 53.8426 799.494 50.5801 804.161 47.4086C832.704 28.0137 856.234 12.0242 856.001 -3.24347C855.785 -17.4549 719.909 19.7287 651.998 40.0969C644.373 55.6705 625.73 86.2767 612.163 84.1122C607.188 83.3185 599.421 82.2746 590.796 81.1154C570.022 78.3232 544.271 74.8623 540.578 72.6182C538.279 71.2212 525.054 75.5903 510.777 80.3066C492.6 86.3114 472.72 92.879 471.516 88.826C469.796 83.0369 458.876 52.5122 453.631 37.9735L414.52 79.1696L340.171 89.7963L291.23 45.7966Z" fill="black" fill-opacity="0.03"/><path d="M814.075 26.2342C832.996 33.1725 852.217 39.3799 870.711 47.2993C882.307 52.2709 892.938 59.5821 903.777 66.2131C928.283 81.2051 949.503 100.995 966.162 124.393C974.621 136.225 980.598 149.835 987.8 162.573C995.718 176.58 1003.31 190.734 1006.88 206.599C1008.72 214.868 1010.1 223.134 1012.01 231.289C1013.4 237.217 1015.14 243.148 1016.91 249.01C1020.57 261.042 1019.1 273.148 1017.66 285.272C1015.55 303.039 1013.35 321.032 1005.98 337.363C997.067 357.094 990.635 378.349 973.953 393.994C969.554 398.113 965.666 404.778 965.206 410.567C964.689 417.048 960.893 420.612 957.889 424.759C938.876 451.089 915.615 472.576 885.122 485.128C880.613 486.993 875.194 486.54 870.381 487.81C865.351 489.279 860.411 491.039 855.586 493.083C840.185 499.188 824.33 503.194 807.665 502.246C802.769 501.933 797.972 499.792 793.121 498.52C791.824 498.079 790.48 497.786 789.117 497.648C771.874 497.207 754.499 497.988 737.411 496.134C717.59 493.985 698.28 488.768 680.432 479.08C674.289 475.743 667.182 474.016 661.394 470.252C635.606 453.23 610.956 434.545 587.602 414.315C575.458 403.792 562.995 393.641 551.086 382.877C548.704 380.717 547.189 376.632 546.884 373.295C544.566 347.97 543.118 322.576 540.502 297.287C536.466 258.27 531.542 219.338 527.508 180.311C527.024 175.607 529.179 170.341 531.048 165.722C544.038 133.581 560.135 103.234 584.508 78.0587C590.992 71.3613 598.414 65.5101 605.395 59.3875C608.832 56.1774 612.451 53.1668 616.233 50.3705C634.195 37.98 654.5 31.55 675.398 25.513C699.72 18.423 724.238 17.2243 749.097 15.9146C765.922 15.0852 781.682 16.9419 797.329 22.5119C802.651 24.4068 808.189 25.7122 813.636 27.2897C813.82 26.923 813.951 26.5851 814.075 26.2342ZM833.487 141.588C834.392 134.645 835.004 128.711 836.067 122.864C837.772 113.655 839.469 104.4 845.087 96.4906C845.839 95.5621 846.215 94.3858 846.142 93.1935C844.845 87.6684 842.037 83.6948 835.996 82.0669C820.451 77.8635 805.048 73.1707 789.53 68.8755C786.808 68.1612 783.972 67.9896 781.185 68.3704C770.822 69.7897 760.611 71.9488 750.255 72.9278C715.177 76.2289 683.668 87.9011 657.341 111.804C654.42 114.381 651.808 117.288 649.558 120.468C646.572 124.863 644.221 129.696 641.511 134.282C640.029 136.803 638.785 139.648 636.721 141.581C630.683 147.159 625.411 153.069 621.67 160.528C618.362 167.139 614.143 173.31 610.051 179.496C606.974 184.13 607.185 188.898 610.51 193.718C617.775 204.253 616.6 215.947 606.296 222.931C593.499 231.612 580.587 240.117 567.644 248.579C564.559 250.603 563.819 253.273 565.169 256.283C566.811 259.93 569.169 263.243 570.968 266.803C576.316 277.546 581.763 288.251 586.691 299.181C588.826 303.911 591.717 304.925 596.622 304.787C620.141 304.095 642.477 307.679 660.506 324.724C666.878 330.747 669.764 345.749 660.146 351.661C656.517 353.925 653.235 356.742 649.355 358.381C637.433 363.504 629.044 372.39 625.195 384.194C620.66 398.097 619.921 412.79 621.954 428.562C627.348 426.047 633.519 424.861 637.07 421.149C643.981 413.934 649.291 405.217 655.515 397.317C659.184 392.667 663.569 388.599 667.22 383.932C671.22 378.902 675.927 376.508 682.377 378.023C684.385 378.494 687.61 377.781 688.32 378.882C690.065 381.597 692.549 384.284 690.386 388.508C688.222 392.733 685.942 397.819 691.798 401.614C692.274 401.918 692.538 402.878 692.537 403.53C693.068 411.242 693.786 418.954 693.938 426.678C694.024 431.421 693.109 436.184 692.859 440.941C692.787 442.412 692.902 444.611 693.819 445.263C698.209 448.415 702.78 451.307 707.509 453.924C710.189 455.397 711.884 454.087 713.107 451.125C716.275 443.468 719.922 435.993 723.199 428.378C725.999 421.84 730.293 417.172 737.389 415.271C745.58 413.101 753.789 410.947 761.867 408.403C765.867 407.152 766.746 408.622 767.244 412.17C768.468 421.078 770.013 429.946 771.471 438.81C772.022 442.175 772.647 445.516 773.476 450.176C775.209 448.918 776.861 447.551 778.42 446.083C791.722 430.961 805.049 415.869 818.139 400.565C820.043 398.304 821.21 395.514 821.482 392.571C822.053 381.818 821.89 371.041 822.34 360.287C822.634 356.616 823.315 352.987 824.37 349.459C824.612 348.623 826.279 347.371 826.956 347.556C831.01 348.517 834.974 349.824 838.805 351.463C844.247 353.976 849.538 356.804 854.652 359.931C860.923 363.78 866.793 368.287 873.073 372.106C878.61 375.477 883.889 381.338 891.272 377.531C907.75 369.042 923.971 360.07 940.356 351.444C948.195 347.283 951.566 341.485 951.888 332.164C952.156 324.252 948.362 317.882 947.275 310.716C947.166 310.298 946.955 309.913 946.661 309.596C946.366 309.28 945.998 309.041 945.589 308.901C941.961 308.448 942.543 305.677 942.148 303.297C940.521 293.378 939.791 283.221 934.024 274.423C933.455 273.562 934.514 271.128 935.443 269.906C937.563 267.127 941.012 265.032 942.268 261.992C947.733 248.656 959.792 239.087 962.939 224.251C963.71 220.596 964.633 217.448 963.727 213.893C960.048 200.064 956.254 186.246 952.652 172.418C950.721 165.074 948.983 157.675 947.148 150.303C945.693 144.445 943.55 143.979 938.442 146.577C932.025 149.835 925.307 153.294 918.34 154.481C906.907 156.43 895.168 156.61 883.56 157.558C872.83 158.451 861.641 157.764 851.472 160.653C831.168 166.432 811.413 174.17 791.449 181.141C785.138 183.347 778.946 185.907 772.583 187.91C768.447 189.21 764.027 189.543 759.861 190.757C749.775 193.704 739.846 197.215 729.699 199.879C725.082 201.084 724.611 203.931 724.314 208.011C726.119 208.152 727.931 208.171 729.738 208.068C741.432 206.592 753.122 205.016 764.808 203.494C767.979 202.992 771.174 202.652 774.379 202.476C775.057 202.466 775.728 202.608 776.345 202.89C776.961 203.171 777.507 203.586 777.944 204.104C778.331 204.791 777.409 206.79 776.515 207.547C771.403 211.887 766.19 216.105 760.876 220.202C750.395 228.294 739.474 235.84 732.028 247.275C730.667 249.379 727.317 251.094 724.728 251.328C713.173 252.401 702.03 254.567 691.455 259.549C689.085 260.732 686.426 261.208 683.793 260.922C667.53 258.091 651.68 253.832 636.943 246.116C631.673 243.353 631.098 240.49 633.04 234.853C636.323 225.35 641.253 215.959 634.294 205.667C630.224 199.637 631.261 198.158 638.295 196.317C639.479 195.956 640.693 195.701 641.922 195.554C651.907 194.788 659.048 189.221 665.766 182.326C675.222 172.627 686.266 164.613 698.423 158.632C706.866 154.447 710.965 156.098 715.409 164.656C718.388 170.403 721.188 176.275 723.874 181.584C739.675 173.219 755.419 165.015 771.045 156.567C784.716 149.182 799.787 144.749 815.282 143.553C821.443 143.05 827.581 142.242 833.487 141.588Z" fill="white" fill-opacity="0.06"/><path d="M1090.38 269.413C1103.91 273.881 1116.8 280.103 1128.72 287.92C1146.01 299.216 1163.63 310.086 1180.4 322.125C1193.83 331.761 1206.29 342.762 1218.99 353.38C1222.39 356.232 1220.51 361.93 1216.43 363.977C1214.18 365.125 1212.58 367.526 1210.51 369.147C1208.86 370.459 1207.07 372.206 1205.12 372.482C1183.81 375.646 1162.49 378.777 1141.12 381.497C1122.04 383.914 1102.87 385.69 1083.78 388.03C1077.16 388.841 1070.62 390.474 1064.07 391.793C1059.89 392.637 1056.55 391.305 1053.48 388.471C1051.89 386.992 1049.62 386.249 1048.03 384.781C1047.08 383.921 1046.06 382 1046.4 381.072C1047.95 377 1049.12 372.257 1052.02 369.306C1059.25 361.961 1061.88 352.813 1064.51 343.43C1068.36 329.702 1071.97 315.876 1076.6 302.409C1080.43 291.416 1085.59 280.888 1090.38 269.413Z" fill="white" fill-opacity="0.06"/><path d="M482.06 152.939C479.83 172.095 477.636 190.666 475.507 209.244C474.901 213.266 474.576 217.325 474.531 221.393C474.787 232.385 472.074 242.782 468.468 252.943C467.832 254.759 466.995 256.771 467.199 258.587C467.854 264.302 464.245 265.655 460.077 264.967C455.922 264.411 451.945 262.927 448.442 260.625C437.56 252.767 426.928 244.567 416.546 236.028C394.547 217.926 370.373 202.64 344.586 190.524C341.404 189.028 336.751 188.255 337.651 182.592C337.764 181.896 335.169 180.548 333.663 179.868C327.711 177.206 322.69 174.005 323.206 166.342C323.408 163.086 324.311 161.037 327.961 160.614C346.73 158.457 365.48 156.174 384.226 153.945C391.591 153.061 399.133 152.903 406.287 151.184C421.633 147.484 436.909 150.173 452.198 150.755C462.162 151.132 472.149 152.19 482.06 152.939Z" fill="white" fill-opacity="0.06"/><path d="M730.697 556.16C732.698 558.95 735.15 561.019 735.772 563.531C737.52 570.667 734.977 576.815 730.413 582.455C712.776 604.3 695.364 626.32 677.685 648.119C671.469 655.8 664.735 663.055 658.258 670.528C655.839 673.309 653.941 673.256 650.232 671.519C644.374 668.839 644.256 664.893 644.299 659.745C644.599 626.293 641.324 593.122 636.107 560.128C635.072 553.508 634.522 546.818 633.591 540.183C632.587 533.074 634.792 526.872 638.808 521.25C644.215 513.689 648.977 512.482 657.89 515.074C681.618 521.945 705.402 528.624 729.197 535.304C732.063 536.135 735.138 536.207 738.022 536.976C743.152 538.351 744.183 542.429 740.519 546.109C737.175 549.483 733.884 552.906 730.697 556.16Z" fill="white" fill-opacity="0.06"/><path d="M864.048 -115.669C870.391 -110.274 874.267 -105.14 875.532 -96.8723C879.353 -72.6483 884.92 -48.6918 889.212 -24.5301C890.955 -14.6656 891.361 -4.53629 891.974 5.4873C892.251 9.98794 886.383 13.3385 882.043 11.7942C861.546 4.53216 841.016 -2.61771 820.567 -10.0093C818.153 -10.8742 816.272 -13.1208 813.966 -14.3965C812.335 -15.3137 810.537 -15.8946 808.678 -16.1048C805.942 -16.3556 802.986 -15.5428 800.414 -16.1663C793.403 -17.9976 786.569 -20.4741 779.61 -22.5225C775.468 -23.7219 773.867 -26.02 776.416 -29.7795C781.036 -36.6079 784.953 -44.2919 790.866 -49.7842C814.81 -72.0235 839.41 -93.6305 864.048 -115.669Z" fill="white" fill-opacity="0.06"/><path d="M907.469 524.254C913.925 521.051 920.632 518.319 926.667 514.508C943.962 503.582 961.024 492.312 978.033 480.961C983.156 477.549 986.985 478.15 990.168 483.27C991.303 485.08 993.639 486.099 995.284 487.636C997.17 489.409 1000.41 491.33 1000.48 493.228C1001.44 523.189 1001.98 553.16 1001.82 583.512C973.387 559.201 939.197 545.156 907.469 524.254Z" fill="white" fill-opacity="0.06"/><path d="M464.516 324.964L511.117 417.946C501.448 418.041 491.94 418.647 482.491 418.099C469.635 417.359 456.797 415.951 444.013 414.393C437.029 413.541 430.161 411.751 423.232 410.441C418.986 409.642 418.267 406.053 418.856 403.14C419.914 397.921 421.21 392.263 423.981 387.772C433.235 372.771 443.228 358.194 452.883 343.409C456.686 337.571 460.326 331.608 464.516 324.964Z" fill="white" fill-opacity="0.06"/><path d="M1106.25 73.6522C1088.53 95.2747 1071.67 115.842 1054.63 136.631C1051.22 133.931 1047.88 131.87 1045.29 129.108C1032.5 115.459 1019.88 101.703 1007.21 87.9558C1003.84 84.317 1000.44 80.7597 997.304 76.9439C996.795 76.3221 996.422 75.6001 996.21 74.8248C995.998 74.0495 995.952 73.2382 996.075 72.4441C996.37 71.4245 998.631 70.6428 1000.03 70.6174C1027.72 70.1134 1055.41 69.6857 1083.1 69.3343C1088.75 69.2577 1094.44 68.6287 1100.01 69.2473C1102.37 69.4997 1104.46 72.3157 1106.25 73.6522Z" fill="white" fill-opacity="0.06"/><path d="M554.604 22.7985C550.044 -0.0927664 545.76 -21.5336 541.487 -42.9715L542.846 -43.8486C547.907 -40.1729 552.813 -36.2659 558.081 -32.9611C565.1 -28.5636 572.415 -24.6548 579.602 -20.5293C587.264 -16.1002 594.975 -11.8007 602.558 -7.25089C604.046 -6.35591 606.012 -4.67032 606.008 -3.35662C606.003 -2.04291 603.887 -0.500929 602.356 0.282159C589.036 7.07749 575.672 13.7716 562.264 20.3644C559.778 21.3757 557.217 22.1895 554.604 22.7985Z" fill="white" fill-opacity="0.06"/><path d="M903.19 262.985C899.601 265.758 895.645 267.85 890.097 267.039C883.859 266.127 877.436 266.544 871.102 266.234C852.977 265.405 834.885 264.498 816.794 263.436C814.685 263.311 812.649 261.981 810.581 261.217C811.631 259.311 812.331 256.972 813.822 255.448C819.745 249.428 826.067 243.711 831.936 237.609C833.493 235.919 834.375 233.717 834.414 231.42C833.97 223.368 837.353 217.452 844.299 214.16C859.105 207.132 874.149 200.582 889.127 193.99C894.758 191.499 900.517 189.288 907.415 186.468C907.76 189.784 908.746 192.832 908.263 195.642C906.387 206.779 904.611 217.99 901.7 228.882C899.096 238.059 898.792 247.736 900.815 257.059C901.461 259.09 902.254 261.07 903.19 262.985Z" fill="white" fill-opacity="0.06"/><path d="M786.952 337.507C784.891 336.988 783.022 337.065 781.897 336.142C776.523 331.79 771.164 327.387 766.293 322.595C761.538 317.903 755.939 316.657 750.237 319.05C740.166 323.283 730.498 328.374 720.659 333.105C718.911 333.947 717.218 335.214 715.39 335.491C713.084 335.818 710.746 335.34 708.411 335.194C708.644 331.946 704.331 329.238 707.866 325.621C716.489 316.847 724.919 307.895 733.405 298.981C734.362 297.966 734.998 296.647 735.984 295.651C745.22 286.17 754.353 276.66 763.832 267.448C767.016 264.359 770.055 265.393 771.681 269.478C779.87 289.994 783.825 311.539 786.856 333.258C786.989 334.136 786.907 335.03 786.952 337.507Z" fill="white" fill-opacity="0.06"/><path d="M1103 -6.29412L-34 -11L-13.0092 123.588L72.953 120.529L116.934 122.647L210.892 120.529L262.869 118.176L332.339 117.471L433.294 123.588L631.207 122.647L743.158 115.118L846.613 125L1082.01 124.294L1103 -6.29412Z" fill="url(#paint2_linear_709_30319)" fill-opacity="0.5"/></g><defs><filter id="filter0_f_709_30319" x="-43" y="-180" width="1306" height="816.5" filterUnits="userSpaceOnUse" color-interpolation-filters="sRGB"><feFlood flood-opacity="0" result="BackgroundImageFix"/><feBlend mode="normal" in="SourceGraphic" in2="BackgroundImageFix" result="shape"/><feGaussianBlur stdDeviation="63" result="effect1_foregroundBlur_709_30319"/></filter><filter id="filter1_f_709_30319" x="-237.225" y="-160" width="1312.73" height="880.276" filterUnits="userSpaceOnUse" color-interpolation-filters="sRGB"><feFlood flood-opacity="0" result="BackgroundImageFix"/><feBlend mode="normal" in="SourceGraphic" in2="BackgroundImageFix" result="shape"/><feGaussianBlur stdDeviation="83.5" result="effect1_foregroundBlur_709_30319"/></filter><filter id="filter2_f_709_30319" x="606" y="126" width="879" height="553" filterUnits="userSpaceOnUse" color-interpolation-filters="sRGB"><feFlood flood-opacity="0" result="BackgroundImageFix"/><feBlend mode="normal" in="SourceGraphic" in2="BackgroundImageFix" result="shape"/><feGaussianBlur stdDeviation="57" result="effect1_foregroundBlur_709_30319"/></filter><linearGradient id="paint0_linear_709_30319" x1="557.5" y1="-13" x2="557.5" y2="544" gradientUnits="userSpaceOnUse"><stop stop-color="#7D7030"/><stop offset="0.473958" stop-color="#8D6F10"/><stop offset="1" stop-color="#422104"/></linearGradient><linearGradient id="paint1_linear_709_30319" x1="1050.5" y1="406.5" x2="741.5" y2="427.5" gradientUnits="userSpaceOnUse"><stop offset="0.338945" stop-color="#4E3800"/><stop offset="1" stop-opacity="0"/></linearGradient><linearGradient id="paint2_linear_709_30319" x1="23" y1="75.7" x2="1038" y2="76.8764" gradientUnits="userSpaceOnUse"><stop offset="0.00586728"/><stop offset="0.876684" stop-opacity="0.56"/></linearGradient></defs></svg>
